<svg width="41" height="40" viewBox="0 0 41 40" fill="none" xmlns="http://www.w3.org/2000/svg">
<path d="M9.7988 17.5003C9.03102 17.5003 8.39047 17.2437 7.87713 16.7303C7.3638 16.217 7.10658 15.5764 7.10547 14.8087V9.35866C7.10547 8.59199 7.36269 7.95199 7.87713 7.43866C8.39158 6.92533 9.03213 6.6681 9.7988 6.66699H15.2471C16.0138 6.66699 16.6544 6.92421 17.1688 7.43866C17.6832 7.9531 17.9399 8.59366 17.9388 9.36032V14.8087C17.9388 15.5753 17.6821 16.2159 17.1688 16.7303C16.6555 17.2448 16.0149 17.5014 15.2471 17.5003H9.7988ZM9.7988 33.3336C9.03102 33.3336 8.39047 33.077 7.87713 32.5636C7.3638 32.0503 7.10658 31.4092 7.10547 30.6403V25.1936C7.10547 24.4259 7.36269 23.7853 7.87713 23.272C8.39158 22.7586 9.03213 22.5014 9.7988 22.5003H15.2471C16.0138 22.5003 16.6544 22.7575 17.1688 23.272C17.6832 23.7864 17.9399 24.427 17.9388 25.1936V30.642C17.9388 31.4086 17.6821 32.0492 17.1688 32.5636C16.6555 33.0781 16.0149 33.3348 15.2471 33.3336H9.7988ZM25.6321 17.5003C24.8643 17.5003 24.2238 17.2437 23.7105 16.7303C23.1971 16.217 22.9399 15.5764 22.9388 14.8087V9.35866C22.9388 8.59199 23.196 7.95199 23.7105 7.43866C24.2249 6.92533 24.8655 6.6681 25.6321 6.66699H31.0805C31.8471 6.66699 32.4877 6.92421 33.0021 7.43866C33.5166 7.9531 33.7732 8.59366 33.7721 9.36032V14.8087C33.7721 15.5753 33.5154 16.2159 33.0021 16.7303C32.4888 17.2448 31.8477 17.5014 31.0788 17.5003H25.6321ZM25.6321 33.3336C24.8643 33.3336 24.2238 33.077 23.7105 32.5636C23.1971 32.0503 22.9399 31.4092 22.9388 30.6403V25.1936C22.9388 24.4259 23.196 23.7853 23.7105 23.272C24.2249 22.7586 24.8655 22.5014 25.6321 22.5003H31.0805C31.8471 22.5003 32.4877 22.7575 33.0021 23.272C33.5166 23.7864 33.7732 24.427 33.7721 25.1936V30.642C33.7721 31.4086 33.5154 32.0492 33.0021 32.5636C32.4888 33.0781 31.8477 33.3348 31.0788 33.3336H25.6321Z" fill="#1E293B" style="fill:#1E293B;fill:color(display-p3 0.1176 0.1608 0.2314);fill-opacity:1;"/>
</svg>
