<svg width="38" height="40" viewBox="0 0 38 40" fill="none" xmlns="http://www.w3.org/2000/svg">
<path fill-rule="evenodd" clip-rule="evenodd" d="M7.14691 25.7144C7.68056 25.7144 8.19236 25.9402 8.56971 26.3421C8.94706 26.7439 9.15905 27.289 9.15905 27.8573C9.15905 28.4256 8.94706 28.9706 8.56971 29.3725C8.19236 29.7744 7.68056 30.0001 7.14691 30.0001C6.61326 30.0001 6.10146 29.7744 5.72411 29.3725C5.34676 28.9706 5.13477 28.4256 5.13477 27.8573C5.13477 27.289 5.34676 26.7439 5.72411 26.3421C6.10146 25.9402 6.61326 25.7144 7.14691 25.7144ZM31.2913 26.4287C32.0331 26.4287 32.6341 27.063 32.6341 27.8573C32.6341 28.6466 32.0371 29.2859 31.2913 29.2859H12.514C12.3376 29.2864 12.1629 29.2499 11.9998 29.1783C11.8367 29.1067 11.6886 29.0015 11.5638 28.8688C11.439 28.736 11.3401 28.5783 11.2727 28.4047C11.2053 28.2312 11.1708 28.0451 11.1712 27.8573C11.1712 27.068 11.7681 26.4287 12.514 26.4287H31.2913ZM7.14691 18.5716C7.68056 18.5716 8.19236 18.7973 8.56971 19.1992C8.94706 19.6011 9.15905 20.1461 9.15905 20.7144C9.15905 21.2827 8.94706 21.8278 8.56971 22.2297C8.19236 22.6315 7.68056 22.8573 7.14691 22.8573C6.61326 22.8573 6.10146 22.6315 5.72411 22.2297C5.34676 21.8278 5.13477 21.2827 5.13477 20.7144C5.13477 20.1461 5.34676 19.6011 5.72411 19.1992C6.10146 18.7973 6.61326 18.5716 7.14691 18.5716ZM31.2913 19.2859C32.0331 19.2859 32.6341 19.9201 32.6341 20.7144C32.6341 21.5037 32.0371 22.143 31.2913 22.143H12.514C12.3376 22.1436 12.1629 22.107 11.9998 22.0354C11.8367 21.9639 11.6886 21.8587 11.5638 21.7259C11.439 21.5932 11.3401 21.4355 11.2727 21.2619C11.2053 21.0883 11.1708 20.9023 11.1712 20.7144C11.1712 19.9251 11.7681 19.2859 12.514 19.2859H31.2913ZM7.14691 11.4287C7.68056 11.4287 8.19236 11.6545 8.56971 12.0563C8.94706 12.4582 9.15905 13.0032 9.15905 13.5716C9.15905 14.1399 8.94706 14.6849 8.56971 15.0868C8.19236 15.4887 7.68056 15.7144 7.14691 15.7144C6.61326 15.7144 6.10146 15.4887 5.72411 15.0868C5.34676 14.6849 5.13477 14.1399 5.13477 13.5716C5.13477 13.0032 5.34676 12.4582 5.72411 12.0563C6.10146 11.6545 6.61326 11.4287 7.14691 11.4287ZM31.2913 12.143C32.0331 12.143 32.6341 12.7773 32.6341 13.5716C32.6341 14.3609 32.0371 15.0001 31.2913 15.0001H12.514C12.3376 15.0007 12.1629 14.9641 11.9998 14.8926C11.8367 14.821 11.6886 14.7158 11.5638 14.5831C11.439 14.4503 11.3401 14.2926 11.2727 14.119C11.2053 13.9454 11.1708 13.7594 11.1712 13.5716C11.1712 12.7823 11.7681 12.143 12.514 12.143H31.2913Z" fill="#1E293B" style="fill:#1E293B;fill:color(display-p3 0.1176 0.1608 0.2314);fill-opacity:1;"/>
</svg>
